<?xml version="1.0" encoding="UTF-8"?>
<svg id="Capa_1" data-name="Capa 1" xmlns="http://www.w3.org/2000/svg" viewBox="0 0 127.82 127.82">
  <rect width="127.82" height="127.82" rx="23.07" ry="23.07" style="fill: #1e1e1f;"/>
  <g>
    <path d="M68.42,68.29V25.18c0-1.71-2.75-3.58-4.4-3.65-1.75-.08-4.61,1.87-4.61,3.65v43.11l-15.41-15.08c-5.16-2.34-8.93,3.49-5.02,7.43l25.05,24.76,24.83-24.76c4.31-4.19-.88-10.65-5.72-6.92l-14.71,14.58ZM27.8,79.17c-1.74.25-3.47,2.02-3.76,3.76-.32,1.89-.23,6.33-.08,8.35.61,8.26,6.92,14.26,15.17,14.57,16.27-1.09,34.38,1.42,50.44-.05,7.82-.72,13.74-6.69,14.32-14.52.16-2.22.32-8.38-.78-10.06-2.47-3.79-7.77-2.05-8.25,2.24-.61,5.48,2.13,12.76-6.14,13.38l-51.01-.09c-6.68-1.83-4.17-8.31-4.73-13.3-.29-2.58-2.53-4.67-5.18-4.29Z" style="fill: #fff;"/>
    <path d="M68.42,68.29l14.71-14.58c4.84-3.73,10.03,2.74,5.72,6.92l-24.83,24.76-25.05-24.76c-3.9-3.93-.14-9.77,5.02-7.43l15.41,15.08V25.18c0-1.78,2.87-3.72,4.61-3.65,1.65.07,4.4,1.94,4.4,3.65v43.11Z" style="fill: #fff;"/>
    <path d="M27.8,79.17c2.65-.38,4.89,1.71,5.18,4.29.56,4.98-1.96,11.47,4.73,13.3l51.01.09c8.27-.62,5.53-7.9,6.14-13.38.48-4.29,5.78-6.03,8.25-2.24,1.1,1.69.94,7.84.78,10.06-.58,7.83-6.5,13.8-14.32,14.52-16.06,1.48-34.17-1.04-50.44.05-8.25-.31-14.56-6.31-15.17-14.57-.15-2.02-.23-6.46.08-8.35.29-1.75,2.02-3.51,3.76-3.76Z" style="fill: #fff;"/>
  </g>
</svg>