<?xml version="1.0" encoding="UTF-8"?>
<svg id="Capa_1" data-name="Capa 1" xmlns="http://www.w3.org/2000/svg" viewBox="0 0 107.48 113.61">
  <path d="M59.79,62.68V4.89C59.79,2.6,56.11.1,53.9,0c-2.34-.1-6.18,2.51-6.18,4.89v57.79l-20.66-20.22c-6.92-3.14-11.97,4.68-6.73,9.96l33.58,33.19,33.29-33.19c5.77-5.61-1.18-14.28-7.67-9.28l-19.72,19.54ZM5.33,77.27c-2.33.34-4.65,2.7-5.04,5.04-.43,2.54-.31,8.49-.11,11.2.82,11.07,9.28,19.12,20.33,19.54,21.82-1.46,46.09,1.91,67.62-.07,10.48-.96,18.42-8.97,19.2-19.47.22-2.97.43-11.23-1.04-13.49-3.31-5.08-10.41-2.75-11.06,3-.82,7.34,2.85,17.11-8.24,17.94l-68.38-.11c-8.96-2.46-5.59-11.14-6.34-17.83-.39-3.46-3.4-6.26-6.94-5.75Z" style="fill: #fff;"/>
  <path d="M59.79,62.68l19.72-19.54c6.49-5,13.44,3.67,7.67,9.28l-33.29,33.19L20.32,52.42c-5.23-5.27-.18-13.1,6.73-9.96l20.66,20.22V4.89C47.71,2.51,51.56-.1,53.9,0c2.21.1,5.9,2.6,5.9,4.89v57.79Z" style="fill: #fff;"/>
  <path d="M5.33,77.27c3.55-.51,6.56,2.29,6.94,5.75.75,6.68-2.62,15.37,6.34,17.83l68.38.11c11.09-.83,7.41-10.6,8.24-17.94.64-5.75,7.75-8.08,11.06-3,1.47,2.26,1.26,10.52,1.04,13.49-.77,10.5-8.72,18.5-19.2,19.47-21.53,1.98-45.8-1.39-67.62.07-11.05-.42-19.52-8.47-20.33-19.54-.2-2.7-.31-8.66.11-11.2.39-2.34,2.71-4.71,5.04-5.04Z" style="fill: #fff;"/>
</svg>