<svg version="1.2" xmlns="http://www.w3.org/2000/svg" viewBox="0 0 295 120" width="295" height="120">
	<title>file</title>
	<style>
		.s0 { fill: #24356f } 
	</style>
	<path class="s0" d="m47.8 52.4h-22c-0.9 0-1.6-0.7-1.6-1.6v-22.6c0-0.8-0.6-1.5-1.5-1.5h-20.1c-0.8 0-1.5 0.6-1.5 1.5v45.2c0 0.9 0.7 1.5 1.5 1.5h45.2c0.9 0 1.6-0.6 1.6-1.5v-19.5c0-0.9-0.7-1.5-1.6-1.5z"/>
	<path class="s0" d="m72.9 2.1h-45.2c-0.8 0-1.5 0.7-1.5 1.6v19.5c0 0.8 0.7 1.5 1.5 1.5h22.1c0.8 0 1.5 0.7 1.5 1.5v22.7c0 0.8 0.7 1.5 1.5 1.5h20.1c0.9 0 1.6-0.7 1.6-1.5v-45.2c0-0.9-0.7-1.6-1.6-1.6z"/>
	<path class="s0" d="m100.8 2.1h14c0.9 0 1.6 0.8 1.6 1.6v69.6c0 0.9-0.7 1.6-1.6 1.6h-14c-0.9 0-1.6-0.7-1.6-1.6v-69.5c0-0.9 0.7-1.7 1.6-1.7z"/>
	<path class="s0" d="m146 74.9h14.3c0.9 0 1.5-0.7 1.5-1.5v-55.5h17.9c0.9 0 1.6-0.7 1.6-1.5v-12.7c0-0.9-0.7-1.6-1.6-1.6h-53.1c-0.8 0-1.5 0.7-1.5 1.6v12.7c0 0.8 0.7 1.5 1.5 1.5h17.9v55.5c0 0.9 0.7 1.5 1.5 1.5z"/>
	<path class="s0" d="m191.5 74.9h12.6c0.9 0 1.6-0.7 1.6-1.5l-0.3-43.2 18.4 30.3c0.3 0.4 0.8 0.7 1.4 0.7h9.7c0.5 0 1.1-0.3 1.3-0.8l17.5-29.8-0.3 42.8c0 0.8 0.7 1.5 1.6 1.5h13.6c0.8 0 1.5-0.6 1.5-1.5v-69.7c0-0.9-0.7-1.6-1.5-1.6h-14.1c-0.5 0-1.1 0.3-1.3 0.8l-21.2 37c-0.6 1.1-2.1 1.1-2.7 0.1l-22.3-37.1c-0.3-0.5-0.8-0.8-1.4-0.8h-14.1c-0.9 0-1.6 0.7-1.6 1.6v69.7c0 0.9 0.7 1.5 1.6 1.5z"/>
	<path class="s0" d="m162.8 86.8q-0.9-1-2-1.7-2.3-1.5-5.3-1.5-3.2 0-5.7 1.5-2.5 1.5-3.9 4.2-1.4 2.6-1.4 6c0 2.3 0.5 4.3 1.5 6.1q1.4 2.7 3.9 4.1 2.5 1.5 5.7 1.5 3.1 0 5.3-1.4 0.5-0.3 0.9-0.6v1.4q0 2.9-1.4 4.3-1.5 1.5-3.7 1.5-2 0-3.3-0.9-1.2-0.8-2.5-2.7l-5.1 2.7 0.4 0.8q1.1 2.2 2.8 3.6 1.7 1.3 3.6 1.9 2 0.5 4 0.5 3.9 0 6.6-1.5 2.8-1.5 4.3-4.5 1.5-3 1.5-7.3v-20.6h-5.4c0 0-0.8 2.6-0.8 2.6zm-2.1 12.4q-1.4 1.5-3.7 1.5-2.3 0-3.7-1.5-1.5-1.6-1.5-3.9c0-1.5 0.5-2.9 1.5-3.9q1.4-1.5 3.7-1.5 2.3 0 3.7 1.5 1.5 1.5 1.5 3.9c0 1.6-0.5 2.8-1.5 3.9z"/>
	<path class="s0" d="m186.3 83.6q-1.6 0-3.1 0.8-1.5 0.7-2.6 1.8-0.2 0.3-0.5 0.5l-0.7-2.5h-5.3v24.1h7.2v-16q0.4-0.4 0.9-0.7 1.8-1 4.9-1h1.7v-6.6q-0.4-0.2-1.1-0.3-0.6-0.1-1.4-0.1z"/>
	<path class="s0" d="m209 85.2q-2.8-1.6-6.6-1.6c-2.6 0-4.7 0.5-6.6 1.6q-2.9 1.6-4.5 4.5-1.5 2.8-1.5 6.6c0 2.5 0.5 4.6 1.5 6.5q1.6 2.9 4.5 4.5 2.8 1.6 6.6 1.6c2.5 0 4.7-0.6 6.6-1.6q2.9-1.6 4.5-4.5 1.6-2.8 1.6-6.5c0-2.5-0.5-4.7-1.6-6.6q-1.6-2.9-4.5-4.5zm-2.7 15.1q-1.5 1.6-3.9 1.6c-1.6 0-2.8-0.6-3.8-1.6q-1.5-1.5-1.5-4.1 0-2.6 1.5-4.1 1.4-1.5 3.8-1.6c1.5 0 2.9 0.6 3.9 1.6q1.5 1.6 1.5 4.2c0 1.7-0.5 3-1.5 4z"/>
	<path class="s0" d="m233.4 99.5q-0.5 0.5-1 0.9-1 0.7-2 1.1-1 0.3-2.1 0.3-1.2 0-2.1-0.6-0.8-0.7-0.8-2.7v-14.3h-7.2v14.7q0 2 0.3 3.8 0.3 1.8 1.2 3.2 0.9 1.4 2.6 2.2 1.6 0.8 4.3 0.8 1.9 0 3.6-0.7 1.8-0.7 3.3-1.9 0.5-0.4 0.9-0.8l0.9 2.8h5.3v-24.1h-7.2c0 0 0 15.3 0 15.3z"/>
	<path class="s0" d="m264.9 85.2q-2.5-1.6-5.8-1.6c-2.2 0-3.9 0.5-5.5 1.5q-1 0.7-1.8 1.5l-0.7-2.4h-5.4v33.4h7.2v-10.6q0.3 0.2 0.6 0.4 2.3 1.5 5.5 1.5c2.2 0 4.1-0.6 5.8-1.6q2.5-1.6 3.9-4.5 1.5-2.9 1.5-6.6c0-2.4-0.5-4.6-1.4-6.6q-1.4-2.8-3.9-4.4zm-3.5 15.3q-1.5 1.6-3.7 1.6c-1.5 0-2.6-0.5-3.6-1.6q-1.5-1.7-1.5-4.3c0-1.7 0.5-3.1 1.5-4.2q1.5-1.7 3.6-1.7c1.5 0 2.7 0.6 3.7 1.7q1.4 1.6 1.4 4.2c0 1.8-0.4 3.2-1.4 4.3z"/>
	<path class="s0" d="m289.1 67.5q0.6-0.6 0.6-1.4 0-1.2-0.8-1.8-0.8-0.6-2.1-0.6h-3.2v7.9h1.5v-3.1h1l2.1 3.1h1.9l-2.3-3.4q0.8-0.2 1.3-0.7zm-2.6-0.2h-1.4v-2.3h1.5q0.7 0 1.1 0.3 0.4 0.3 0.4 0.9 0 0.5-0.4 0.8-0.4 0.3-1.2 0.3z"/>
	<path class="s0" d="m292.8 63.9q-1-1.6-2.7-2.6-1.7-1-3.8-1-2.1 0-3.8 1-1.7 0.9-2.7 2.6-1 1.6-1 3.7 0 2.1 1 3.7 1 1.7 2.7 2.7 1.7 0.9 3.8 0.9 2.1 0 3.8-0.9 1.7-1 2.7-2.7 1-1.6 1-3.7 0-2.1-1-3.7zm-1.2 6.9q-0.9 1.4-2.3 2.1-1.3 0.8-3 0.8-1.6 0-3-0.8-1.4-0.7-2.2-2.1-0.9-1.4-0.9-3.2 0-1.8 0.9-3.2 0.8-1.3 2.2-2.1 1.4-0.7 3-0.7 1.7 0 3.1 0.7 1.3 0.8 2.2 2.1 0.8 1.4 0.8 3.2 0 1.8-0.8 3.2z"/>
</svg>