<?xml version="1.0" encoding="UTF-8"?>
<svg id="agregar" xmlns="http://www.w3.org/2000/svg" viewBox="0 0 294.89 296.26">
  <g id="dLWJzp">
    <g>
      <path d="M111.58,217.59c6.8,1.46,7.69,15.2-2.32,16.4l-91.99-.07c-11.74-1.81-6.51-20.04-4.59-27.89,8.54-34.93,35.57-65.66,69.66-77.35-7.9-6.61-15.09-12.05-20.91-20.8C34.38,67.21,57.37,8.76,106.34,1c75.66-11.99,112.13,86.52,49.31,127.67,16.36,4.98,31.01,15.5,42.85,27.66,20.1-3.16,40.63-.63,57.53,11.17,44.01,30.72,36.64,102.46-13.29,122.75-73.74,29.97-130.71-59.32-78.55-115.2l16.4-12.44c-52.25-48.41-144.56-15.97-152.85,54.97h83.84ZM111.02,18.16c-58.5,7.02-57.79,99.04,3.78,104.18,75.84,6.34,76.43-113.81-3.78-104.18ZM214,171.77c-76.43,1.66-64.96,118.9,9.67,107.22,64.66-10.12,58.46-108.7-9.67-107.22Z" style="fill: #10759b;"/>
      <path d="M222.71,217.59h19.89c3.09,0,5.32,6.11,5.12,8.96-.2,2.86-3.97,7.42-6.68,7.42h-18.33v19.11c0,2.46-5.6,5.82-8.22,5.89-2.48.06-8.15-2.61-8.15-5.11v-19.89h-19.11c-1.2,0-5.01-3.08-5.5-4.64-5.71-18.18,21.91-9.09,24.26-12.47,1.23-5.75-.5-12.72.38-18.33,1.43-9.02,16.33-6.86,16.33-.04v19.11Z" style="fill: #10759b;"/>
    </g>
  </g>
</svg>