<?xml version="1.0" encoding="UTF-8"?>
<svg id="teléfono" xmlns="http://www.w3.org/2000/svg" viewBox="0 0 294.89 296.26">
  <path d="M219.76,294.7c-11.15,0-21.43-4.18-33.71-9.64C110.34,251.37,42.9,183.31,10.04,107.45c-9.18-21.19-15.29-40.5,2.99-62.2,7.74-9.19,31.1-33.32,39.92-39.62,3.8-2.71,7.84-4.08,12.03-4.08,3.03,0,6.11.73,9.14,2.17,6.63,6.68,13.85,13.25,21.5,20.22,12.27,11.18,24.96,22.74,34.5,34.4,13.88,16.98,1.19,28.3-11.09,39.25-4.64,4.13-9.01,8.04-11.92,12.19-5.47,7.81.24,16.8,4.83,24.01l1.21,1.92c5.53,8.85,12.84,18.23,19.58,25.09,6.85,6.97,16.05,14.47,24.61,20.06l1.99,1.31c5.89,3.9,12.56,8.32,19.08,8.32h0c2.82,0,5.34-.82,7.69-2.5,3.81-2.72,7.58-6.91,11.58-11.35,7.72-8.57,15.7-17.43,25.4-17.43,4.69,0,9.26,2.06,13.99,6.29,8.93,8,17.59,17.31,25.95,26.31,8.51,9.16,17.32,18.63,26.47,26.79,6.15,8.52,5.61,17.52-1.49,26.13-8.2,9.94-38.69,40.48-49.22,45.52-6.28,3-12.5,4.46-19.01,4.46ZM35.69,40.84c-1.91,2.13-4.15,4.22-6.31,6.24-3.76,3.52-7.65,7.17-10.18,11.24-9.79,15.78-4.57,27.65,2.03,42.68l.9,2.05c31.75,72.63,94.08,135.86,166.74,169.13l1.74.8c10.59,4.86,19.74,9.06,28.97,9.06,7.69,0,14.69-2.89,22.04-9.1,6.78-5.73,13.3-12.74,19.61-19.52,5.81-6.25,11.82-12.7,18.05-18.19,1.78-2.02,2.04-5.32.58-7.97l-55.22-54.69c-.42-.12-.86-.18-1.32-.18-4.57,0-9.9,5.92-14.6,11.15-2.18,2.43-4.26,4.74-6.02,6.13l36.74,36.96c1.44,2.26,1.48,5.05.19,7.39-1.13,2.05-3.07,3.27-5.19,3.27-.59,0-1.2-.09-1.8-.28l-.12-.04-39.66-38.23c-4.23,3.08-8.95,4.65-14.03,4.65-12.18,0-24.71-8.94-33.85-15.46-13.65-9.74-27.6-23.76-37.33-37.51l-.66-.93c-10.61-14.99-22.64-31.97-8.27-49.49,2.58-3.14,6.63-6.76,10.55-10.27,4.94-4.42,10.06-8.99,12.39-12.71,2.58-4.11,1.39-6.88-1.89-10.86-7.39-8.97-16.75-17.61-25.81-25.97-8.38-7.73-17.04-15.73-24.17-24-1.16-1.22-2.79-1.88-4.71-1.88-.69,0-1.42.08-2.15.25-.9.2-1.42.63-2.09,1.18-.21.18-.43.35-.67.53-2.03,1.51-12.89,12.21-14.19,14.13l-.2.29c-.41.58-.59.88-.44,1.38l36.33,36.56c1.57,2.09,1.8,4.65.67,6.89-1.13,2.26-3.38,3.71-5.73,3.71-1.39,0-2.77-.51-3.99-1.47l-36.93-36.92Z" style="fill: #10759b;"/>
  <path d="M64.97,2.09c2.93,0,5.92.7,8.92,2.12,17.12,17.37,40.5,35.75,55.81,54.47,18.72,22.89-12.36,35.55-23.03,50.79-6.17,8.82,1.2,18.79,6.02,26.52,5.29,8.48,12.66,18.06,19.65,25.18,6.98,7.11,16.34,14.68,24.7,20.13,6.26,4.08,13.91,9.72,21.36,9.72,2.72,0,5.41-.75,8.01-2.6,11.2-8,22.24-28.68,36.67-28.68,4.23,0,8.74,1.77,13.64,6.16,17.98,16.1,34.22,36.87,52.43,53.1,6.18,8.59,4.98,17.47-1.55,25.39-8.12,9.85-38.69,40.42-49.04,45.37-6.56,3.14-12.75,4.41-18.78,4.41-11.3,0-22.02-4.49-33.49-9.6C110.43,250.82,43.53,183.43,10.53,107.24c-9.83-22.7-14.68-40.76,2.9-61.64,7.47-8.87,31.01-33.24,39.82-39.53,3.7-2.64,7.65-3.99,11.72-3.99M76.61,78.7c-1.19,0-2.45-.41-3.66-1.36l-37.28-37.28c-5.2,5.92-12.78,11.31-16.92,17.98-10.38,16.74-4.15,29.12,2.89,45.23,31.88,72.93,94.71,136.3,167.01,169.4,11.3,5.18,21.07,9.91,30.93,9.91,7.2,0,14.45-2.52,22.39-9.23,13.05-11.04,24.69-26.29,37.67-37.71,2.08-2.36,2.18-5.93.69-8.63l-55.4-54.91c-.52-.16-1.06-.24-1.6-.24-7.27,0-16.07,13.92-21.43,17.76l37.17,37.39c2.51,3.99-.18,9.75-4.62,9.75-.53,0-1.08-.08-1.65-.26l-39.89-38.45c-4.54,3.43-9.29,4.81-14.07,4.81-11.9,0-23.99-8.55-33.54-15.36-13.69-9.77-27.5-23.66-37.2-37.38-10.93-15.46-23.36-32.22-8.96-49.78,5.76-7.03,18.72-16.24,22.98-23.04,2.91-4.64,1.09-7.82-1.93-11.49-14.23-17.29-35.16-32.77-49.99-49.99-1.38-1.46-3.21-2.07-5.11-2.07-.75,0-1.51.09-2.27.26-1.33.3-1.97,1.07-2.96,1.8-2.07,1.54-13.02,12.34-14.31,14.26-.5.74-1.03,1.27-.66,2.26l36.41,36.65c3.18,4.26-.32,9.7-4.68,9.7M64.97,1.02h0c-4.3,0-8.45,1.41-12.34,4.18-8.85,6.31-32.26,30.5-40.01,39.71C-5.85,66.84.3,86.3,9.55,107.66c32.91,75.98,100.45,144.14,176.28,177.89,12.34,5.49,22.67,9.69,33.93,9.69,6.59,0,12.88-1.48,19.24-4.52,10.59-5.06,41.19-35.69,49.41-45.66,7.16-8.69,7.73-18.17,1.59-26.69l-.07-.1-.09-.08c-9.14-8.15-17.93-17.61-26.44-26.75-8.38-9.01-17.04-18.32-25.99-26.34-4.83-4.33-9.52-6.43-14.35-6.43-9.93,0-18,8.95-25.79,17.61-3.97,4.41-7.73,8.58-11.49,11.27-2.26,1.62-4.68,2.4-7.39,2.4-6.36,0-12.96-4.37-18.78-8.23-.68-.45-1.34-.89-1.99-1.32-8.53-5.56-17.69-13.03-24.52-19.98-6.71-6.83-14-16.18-19.5-25-.39-.63-.8-1.27-1.21-1.92-4.74-7.45-10.11-15.9-4.84-23.42,2.87-4.1,7.23-7.98,11.84-12.1,11.88-10.6,25.35-22.61,11.15-39.98-9.56-11.69-22.27-23.27-34.55-34.46-7.64-6.96-14.86-13.53-21.32-20.09l-.13-.13-.17-.08c-3.11-1.47-6.26-2.22-9.37-2.22h0ZM45.82,31.79c-.02-.17.07-.34.39-.8l.21-.3c1.23-1.83,12.12-12.56,14.06-14,.25-.18.47-.37.69-.55.63-.52,1.09-.89,1.87-1.07.7-.16,1.38-.24,2.03-.24,1.79,0,3.25.58,4.34,1.73,7.12,8.27,15.79,16.27,24.18,24.01,9.04,8.35,18.39,16.98,25.75,25.92,3.18,3.86,4.27,6.38,1.85,10.24-2.3,3.66-7.38,8.21-12.3,12.6-3.94,3.52-8.01,7.16-10.61,10.33-14.63,17.83-2.47,35,8.25,50.14l.66.93c9.76,13.79,23.76,27.86,37.45,37.63,9.2,6.57,21.81,15.56,34.16,15.56,5.05,0,9.75-1.51,13.98-4.49l39.25,37.83.18.18.24.07c.65.2,1.31.3,1.96.3,2.32,0,4.43-1.32,5.66-3.54,1.39-2.51,1.34-5.52-.13-7.84l-.06-.1-.08-.08-36.33-36.54c1.69-1.44,3.61-3.58,5.62-5.81,4.4-4.89,9.87-10.97,14.2-10.97.36,0,.71.04,1.04.13l55.09,54.6c1.26,2.41,1.03,5.35-.58,7.23-6.23,5.49-12.23,11.94-18.04,18.18-6.3,6.76-12.81,13.76-19.56,19.47-7.25,6.13-14.14,8.98-21.7,8.98-9.12,0-18.22-4.18-28.75-9.01l-1.74-.8C116.55,238.49,54.32,175.36,22.62,102.84l-.9-2.06c-6.54-14.88-11.7-26.64-2.06-42.18,2.49-4.01,6.35-7.63,10.09-11.13,2.03-1.9,4.12-3.86,5.96-5.86l36.49,36.48.04.04.05.04c1.32,1.04,2.81,1.58,4.32,1.58,2.55,0,4.99-1.57,6.21-4.01,1.22-2.43.97-5.19-.67-7.39l-.05-.06-.05-.05L45.82,31.79h0Z" style="fill: #10759b;"/>
</svg>