<?xml version="1.0" encoding="UTF-8"?>
<svg id="Capa_1" data-name="Capa 1" xmlns="http://www.w3.org/2000/svg" viewBox="0 0 51.29 51.29">
  <g id="iINmGR">
    <path d="M.09,17.17C.59,9.57,6.13,2.84,13.42.75c13.67-3.91,26.44,8.01,23.51,21.9-.64,3.04-2.1,5.69-3.96,8.13l2.86,2.86c.98-.75,1.69-2.06,3.09-1.09l12.02,12.02c.46.55.46,1.28.05,1.86-.52.75-3.73,3.9-4.51,4.51-.21.17-.4.2-.6.35h-.7s-.6-.35-.6-.35l-12.02-12.02c-.97-1.4.34-2.11,1.09-3.09l-2.86-2.86c-1.79,1.33-3.61,2.51-5.72,3.27C14.05,40.21,2.07,33.16.23,21.66c-.09-.57-.08-1.18-.23-1.72v-2.6s.09-.16.09-.16ZM4.99,26.31c5.61,10.05,19.81,10.8,26.48,1.41,7.07-9.95.37-23.86-11.72-24.68C7.42,2.19-1.07,15.45,4.99,26.31ZM37.81,35.95c-.2.13-1.72,1.65-1.86,1.86-.06.09-.14.14-.05.25l9.62,9.62,2.15-2.15-9.68-9.66c-.09-.03-.13.05-.19.09Z" style="fill: #b3b3b3;"/>
  </g>
</svg>