<?xml version="1.0" encoding="UTF-8"?>
<svg id="Capa_3" data-name="Capa 3" xmlns="http://www.w3.org/2000/svg" viewBox="0 0 294.89 296.26">
  <path d="M76.24,118.18c-23.58,2.66-24.78,63.91,3.98,61.04,2.24-.22,5.01-1.58,6.76-2.98,14.85-11.9,13.75-60.83-10.74-58.06Z" style="fill: #10759b;"/>
  <path d="M281.54,68.45h-114.32V9.66L0,37.25v221.49l167.22,27.86v-54.46h114.32c7.36,0,13.34-5.99,13.34-13.34V81.79c0-7.36-5.99-13.34-13.34-13.34ZM283.3,86.87l-82.17,65.8-33.91-26.85v-45.57h116.08v6.63ZM167.22,137.92l30.48,24.78c.93.76,2.07,1.13,3.21,1.13s2.24-.36,3.16-1.09l79.22-62.83-.13,120.15h-115.94v-82.14ZM73.54,198.89c-45.21-7.03-43.31-96.08,2.98-100.17,56.03-4.96,52.2,108.76-2.98,100.17Z" style="fill: #10759b;"/>
</svg>