<?xml version="1.0" encoding="UTF-8"?>
<svg id="wp" xmlns="http://www.w3.org/2000/svg" viewBox="0 0 294.89 296.26">
  <path d="M117.75,4.55C22.42,25.99-23.18,135.27,26.44,219.14L1.29,295.36l78.94-24.9c81.42,44.88,184.57,1.14,208.37-88.49C316.45,77.11,223.48-19.23,117.75,4.55ZM150.06,269.39c-23.21,0-44.93-6.28-63.61-17.2l-58.29,16.16,17.16-54.72c-13.48-20.03-21.35-44.13-21.35-70.07,0-69.5,56.45-125.83,126.1-125.83s126.1,56.34,126.1,125.83-56.45,125.83-126.1,125.83Z" style="fill: #10759b;"/>
  <path d="M217.84,182.48c-6.16-4.19-20.9-11.94-27.85-14.76-2.92-1.19-5.59-2.73-8.43-.39-2.95,3.14-12.26,16.2-15.67,17.11-2.74.73-9.25-2.74-11.98-4.15-10.56-5.46-21.23-13.95-28.87-23.03-2.84-3.38-13.95-18.59-13.95-22.13,0-5.73,15.07-12.39,12.88-22.14-4.22-9.29-6.75-19.81-10.79-29.09-1.39-3.2-2.44-5.64-6.28-6.28-1.9-.32-7.59-.66-9.53-.56-9.11.46-18.5,14.17-21.05,22.16-7.21,22.63,5.94,43.73,18.52,61.48,19.91,28.09,43.73,46.38,77.06,56.24,12.11,3.59,22.05,3.16,33.21-3.14,8.1-4.57,12.62-9.41,14.58-18.75.9-4.3,2.17-9.86-1.84-12.58Z" style="fill: #10759b;"/>
</svg>